<svg width="20" height="23" viewBox="0 0 20 23" fill="none" xmlns="http://www.w3.org/2000/svg">
<path d="M18.5693 10.7533L2.36952 1.1284C2.23307 1.04733 2.07687 1.00306 1.91698 1.00015C1.7571 0.997243 1.59931 1.03579 1.45983 1.11184C1.32036 1.18788 1.20424 1.29868 1.12342 1.43283C1.0426 1.56698 1 1.71964 1 1.8751V21.1249C1 21.2804 1.0426 21.433 1.12342 21.5672C1.20424 21.7013 1.32036 21.8121 1.45983 21.8882C1.59931 21.9642 1.7571 22.0028 1.91698 21.9998C2.07687 21.9969 2.23307 21.9527 2.36952 21.8716L18.5693 12.2467C18.7008 12.1685 18.8095 12.0588 18.885 11.9281C18.9604 11.7973 19 11.6499 19 11.5C19 11.3501 18.9604 11.2027 18.885 11.0719C18.8095 10.9412 18.7008 10.8315 18.5693 10.7533Z" stroke="white" stroke-width="1.5" stroke-linecap="round" stroke-linejoin="round"/>
</svg>
